# xmcd
#
# Track frame offsets: 
#        150
#        12534
#        23556
#        35773
#        47598
#        57245
#        65062
#        73323
#        85033
#        92571
#        103250
#        113292
#        123111
#        133825
#        145053
#        156892
#        166633
#        174070
#        182169
#        193189
#
# Disc length: 2662 seconds
#
# Revision: 2
# Processed by: cddbd v1.5.2PL0 Copyright (c) Steve Scherf et al.
# Submitted via: ExactAudioCopyFreeDBPlugin 1.0
#
DISCID=0b0a6414
DTITLE=Johnny Cash - The Complete Sun Recordings - 1955-1958 - CD2
DYEAR=2005
DGENRE=Country
TTITLE0=Next in Line
TTITLE1=Don't Make Me Go
TTITLE2=Give My Love to Rose
TTITLE3=Home of the Blues
TTITLE4=Rock Island Line
TTITLE5=Wreck of the Old 97
TTITLE6=Country Boy
TTITLE7=Doin' My Time
TTITLE8=If the Good Lord's Willing
TTITLE9=I Heard That Lonesome Whistle Blow
TTITLE10=I Was There When It Happened
TTITLE11=Remember Me (I'm the One Who Loves You) (Includes False Start
TTITLE11=s)
TTITLE12=Belshazzar
TTITLE13=Big River
TTITLE14=Goodnight Irene
TTITLE15=Ballad of a Teenage Queen
TTITLE16=Come In, Stranger
TTITLE17=Guess Things Happen That Way
TTITLE18=Oh, Lonesome Me
TTITLE19=Leave That Junk Alone
EXTD=YEAR: 2005
EXTT0=
EXTT1=
EXTT2=
EXTT3=
EXTT4=
EXTT5=
EXTT6=
EXTT7=
EXTT8=
EXTT9=
EXTT10=
EXTT11=
EXTT12=
EXTT13=
EXTT14=
EXTT15=
EXTT16=
EXTT17=
EXTT18=
EXTT19=
PLAYORDER=
